<?xml version="1.0" encoding="UTF-8"?>
<svg xmlns="http://www.w3.org/2000/svg" xmlns:xlink="http://www.w3.org/1999/xlink" version="1.1" id="Layer_1" x="0px" y="0px" width="100%" viewBox="0 0 500 500" enable-background="new 0 0 500 500" xml:space="preserve" style="background: transparent;">

<path fill="#D7D9D8" opacity="1.000000" stroke="none" d=" M99.806046,422.056061   C99.462334,422.079193 99.203239,421.942261 98.995506,421.061340   C98.102707,419.287506 97.404785,417.927765 96.359489,416.933044   C79.895378,401.265076 65.579491,383.909393 54.409019,364.039795   C53.925117,363.179047 52.714291,362.726990 51.842091,362.084564   C51.842087,362.084564 51.920746,362.074677 51.963432,361.728760   C51.460930,359.840729 51.079456,358.215515 50.345352,356.769257   C42.539955,341.392151 35.883888,325.580780 31.675112,308.797394   C31.327682,307.411957 29.990345,306.274750 29.112953,305.022217   C29.052622,303.999664 28.992296,302.977142 28.836517,301.346588   C28.663363,300.385284 28.454111,300.148041 28.113316,300.026917   C28.054583,298.999634 27.995852,297.972382 27.837233,296.339325   C27.660391,295.382690 27.452639,295.147339 27.114086,295.027435   C27.053820,294.002594 26.993555,292.977753 26.836288,291.345306   C26.663263,290.384155 26.454720,290.147369 26.113655,290.027344   C26.048588,289.293884 25.983521,288.560455 26.175121,287.217377   C26.551426,286.134521 26.833727,285.637024 26.767328,285.191498   C23.732626,264.830536 22.912146,244.451111 25.857317,223.989838   C26.283756,221.027191 25.867264,217.943207 25.840839,214.915375   C25.840839,214.915375 25.891665,214.554443 25.946968,214.027054   C25.982773,213.268478 25.963272,213.037277 25.943773,212.806076   C25.943773,212.806076 25.941675,212.373932 26.310574,212.153351   C26.734524,211.261093 26.789576,210.589386 26.844627,209.917694   C26.876551,208.858597 26.908472,207.799500 27.233383,206.220078   C27.667715,205.404663 27.808512,205.109299 27.948761,204.813675   C27.946024,204.096420 27.943287,203.379150 28.232983,202.182556   C28.670904,201.410812 28.812649,201.116577 28.950653,200.820541   C28.947100,200.104736 28.943546,199.388931 29.307087,198.301086   C29.730885,197.258713 29.787590,196.588348 29.844296,195.917999   C29.876059,195.482285 29.907820,195.046570 30.308342,194.269043   C30.732012,193.257004 30.786921,192.586761 30.841829,191.916534   C30.874352,191.481171 30.906872,191.045792 31.353765,190.244843   C32.126492,188.225296 32.484844,186.571335 32.843193,184.917389   C32.875546,184.481781 32.907890,184.046173 33.373299,183.233810   C34.262848,182.210327 34.849735,181.619812 35.156399,180.908493   C40.442570,168.647125 45.716305,156.380219 50.921284,144.084259   C51.478535,142.767838 51.590885,141.263062 51.909622,139.845673   C51.909618,139.845673 51.918941,139.924545 52.238449,139.903229   C53.675072,137.536392 54.792187,135.190857 55.909302,132.845322   C55.909306,132.845322 55.918144,132.924179 56.243919,132.893158   C57.028259,131.844574 57.486824,130.827026 57.945389,129.809464   C57.945389,129.809464 57.942081,129.370346 58.235935,129.043762   C58.695961,128.436874 58.827961,128.141312 58.925789,127.830505   C58.925789,127.830505 58.931919,127.922867 59.251869,127.899216   C60.017662,126.865509 60.463501,125.855446 60.909336,124.845383   C60.909336,124.845383 60.918434,124.924271 61.243664,124.897293   C62.015732,123.862000 62.462566,122.853691 62.909401,121.845383   C62.909401,121.845383 62.918514,121.924271 63.244675,121.898773   C64.016975,120.863937 64.463120,119.854614 64.909256,118.845284   C64.909256,118.845284 64.920219,118.924362 65.239548,118.930321   C67.353745,116.225876 69.148613,113.515472 70.943489,110.805069   C70.920677,110.461029 71.058052,110.201920 71.951431,109.952614   C73.012810,108.853752 73.478371,107.830017 73.943924,106.806282   C75.036606,105.583130 76.129280,104.359978 77.884598,102.996338   C79.012733,101.839142 79.478226,100.822433 79.943718,99.805725   C80.386581,99.234573 80.829437,98.663429 81.897560,98.022125   C86.266533,94.534264 90.138000,91.243317 93.704071,87.649345   C95.710953,85.626762 97.213936,83.104195 98.943924,80.806870   C99.386024,80.235771 99.828125,79.664673 100.912155,79.057236   C102.351326,78.284248 103.148575,77.547592 103.945824,76.810944   C104.708565,75.915520 105.471313,75.020103 106.895248,74.077713   C112.342247,70.301071 117.128052,66.571404 121.913857,62.841728   C121.913857,62.841728 121.924461,62.920578 122.252289,62.960579   C123.358574,62.281132 124.137039,61.561687 124.915497,60.842243   C124.915497,60.842243 124.925369,60.920879 125.254723,60.958939   C126.360535,60.278191 127.136993,59.559383 127.913452,58.840576   C127.913452,58.840572 127.923866,58.919456 128.253784,58.962280   C129.360245,58.283588 130.136810,57.562077 130.913361,56.840569   C130.913361,56.840565 130.923996,56.919487 131.263702,56.966553   C133.040100,55.956032 134.476776,54.898445 135.913452,53.840858   C135.913452,53.840862 135.922134,53.937336 136.102692,53.845711   C136.632904,53.669369 136.862885,53.455807 136.973175,53.113403   C136.973175,53.113403 137.371918,52.942131 137.976959,52.984505   C139.529678,52.771519 140.565002,52.682446 141.412048,52.236095   C156.213974,44.436096 171.436676,37.678284 187.608551,33.190430   C188.520264,32.937424 189.193573,31.825315 189.977844,31.113056   C190.405563,31.048466 190.833267,30.983877 191.746918,31.111408   C192.814529,30.906700 193.396179,30.509872 193.977844,30.113045   C194.405807,30.048550 194.833771,29.984053 195.750824,30.108059   C196.819214,29.902073 197.398514,29.507580 197.977829,29.113089   C198.683472,29.051310 199.389130,28.989532 200.673859,28.832258   C201.608368,28.662228 201.848419,28.454473 201.973129,28.113499   C202.998077,28.053324 204.023026,27.993147 205.655579,27.836250   C206.615860,27.662102 206.852493,27.453264 206.973114,27.113014   C207.997589,27.053181 209.022079,26.993343 210.655182,26.837931   C211.616699,26.663883 211.853104,26.454165 211.973038,26.113201   C212.706924,26.048401 213.440811,25.983601 214.787140,26.163811   C218.592300,25.643499 221.785004,24.878180 224.977722,24.112858   C225.405151,24.048210 225.832596,23.983562 226.851746,24.188511   C230.288239,24.009624 233.132996,23.561144 235.977768,23.112659   C236.709656,23.047626 237.441544,22.982595 238.826660,23.201210   C244.855606,23.662287 250.232178,23.985146 255.606598,23.952646   C258.101776,23.937559 260.592804,23.231491 263.085693,22.838661   C263.824463,22.872328 264.563263,22.905994 265.763916,23.401279   C271.189514,24.583416 276.140076,25.423271 281.122742,25.971119   C283.411041,26.222719 285.762299,25.901268 288.085022,25.839680   C288.520081,25.873014 288.955139,25.906349 289.749756,26.345440   C291.101318,26.780563 292.093292,26.809933 293.085266,26.839302   C293.520264,26.872675 293.955231,26.906048 294.752747,27.343555   C296.105377,27.778034 297.095490,27.808382 298.085632,27.838730   C298.520569,27.872316 298.955475,27.905899 299.776917,28.378059   C303.470520,29.491163 306.777557,30.165689 310.084625,30.840216   C310.519775,30.873375 310.954926,30.906536 311.769196,31.376665   C312.643158,32.213123 313.079163,32.826248 313.641327,32.981033   C329.987274,37.481361 345.409088,44.216446 360.368591,52.106693   C361.466278,52.685665 362.884796,52.656479 364.154144,52.910034   C364.154144,52.910034 364.075348,52.918880 364.100769,53.242771   C365.801575,54.348591 367.476959,55.130520 369.152344,55.912445   C369.152344,55.912445 369.073730,55.920559 369.103210,56.244568   C370.806580,57.348900 372.480530,58.129219 374.154449,58.909538   C374.154449,58.909542 374.075592,58.918423 374.102783,59.242863   C375.137604,60.015438 376.145233,60.463573 377.152832,60.911701   C377.152832,60.911697 377.074158,60.920387 377.091248,61.229637   C381.407959,64.880951 385.643555,68.310905 390.042542,71.516663   C391.549194,72.614632 393.465057,73.151009 395.193970,73.943962   C395.537842,73.920654 395.796997,74.057632 396.026184,74.927612   C396.771912,75.973335 397.462860,76.446335 398.153809,76.919342   C398.153809,76.919342 398.071808,76.926613 398.111359,77.250656   C399.165558,78.031006 400.180176,78.487328 401.194824,78.943634   C401.765625,79.386185 402.336395,79.828728 402.973724,80.896744   C407.146423,85.955620 411.156860,90.483856 415.406982,94.774719   C417.057037,96.440567 419.248566,97.570114 421.193420,98.943970   C421.762756,99.383743 422.332062,99.823524 423.076935,100.758484   C423.330139,101.611481 423.541626,101.851204 423.886902,101.972855   C425.205109,103.381569 426.523315,104.790283 427.905182,106.878967   C429.087646,109.540680 429.972839,111.708496 431.372864,113.466278   C434.498474,117.390633 437.880951,121.110413 441.158783,124.913528   C441.158783,124.913536 441.079895,124.924202 441.034485,125.265564   C442.712311,128.042557 444.435516,130.478195 446.158722,132.913834   C446.158722,132.913834 446.079865,132.924286 446.034912,133.268341   C447.379425,135.713043 448.768890,137.813675 450.158386,139.914291   C450.158386,139.914291 450.079590,139.924759 450.035126,140.270386   C450.540222,142.164841 451.040497,143.733261 451.647003,145.259460   C457.647064,160.357635 463.647827,175.455612 469.708832,190.529358   C470.207733,191.770111 471.150391,192.832458 471.886841,193.977692   C471.951324,194.405960 472.015808,194.834229 471.895142,195.755539   C472.102295,196.824966 472.494659,197.401337 472.886993,197.977707   C472.947662,198.685089 473.008331,199.392487 473.164734,200.679306   C473.336884,201.612808 473.545532,201.850891 473.886475,201.972977   C473.951263,202.707153 474.016052,203.441345 473.895508,204.711792   C474.102203,205.824585 474.494293,206.401093 474.886353,206.977585   C474.946503,208.000839 475.006622,209.024078 475.162903,210.655182   C475.336700,211.616318 475.546051,211.853012 475.887146,211.973145   C475.951630,213.023453 476.016083,214.073746 475.892975,215.687042   C476.099213,216.825897 476.492981,217.401764 476.886780,217.977646   C476.947296,219.647552 477.007843,221.317444 477.034485,223.739319   C477.015289,224.713715 477.029999,224.936157 477.044708,225.158600   C477.044708,225.158600 477.043793,225.500473 477.150757,225.888763   C477.338715,226.625122 477.548248,226.856949 477.886353,226.972549   C477.951569,227.705902 478.016785,228.439270 477.815277,229.802490   C477.994476,232.947281 478.440430,235.462204 478.886353,237.977142   C478.951691,238.709229 479.016998,239.441330 478.797852,240.826447   C478.728943,247.681412 478.944489,253.883347 479.160034,260.085297   C479.126801,260.824402 479.093536,261.563477 478.599548,262.769226   C477.772095,267.204712 477.405334,271.173492 477.038605,275.142303   C477.040100,275.519806 477.041595,275.897278 477.022186,276.891907   C477.017609,277.731415 477.033936,277.953796 477.050293,278.176208   C477.053558,279.854828 477.056854,281.533417 476.766907,283.751923   C476.323822,284.581085 476.181519,284.874054 476.046722,285.170654   C476.051025,286.202789 476.055328,287.234955 475.694763,288.668030   C475.268250,289.737915 475.206573,290.406860 475.144958,291.075775   C475.116547,292.458130 475.088104,293.840485 474.766479,295.761108   C474.328308,296.593475 474.188019,296.889832 474.052490,297.188416   C474.054810,297.905182 474.057159,298.621979 473.767029,299.817810   C473.329834,300.589508 473.188049,300.883606 473.049255,301.179077   C473.052795,301.895020 473.056366,302.610992 472.692383,303.698547   C472.268219,304.740692 472.211609,305.411163 472.155029,306.081665   C472.123383,306.517517 472.091736,306.953339 471.625183,307.783142   C470.753265,309.018768 470.152466,309.814758 469.903259,310.708740   C464.027008,331.791107 455.318848,351.631226 443.883331,370.283844   C433.588287,387.076233 421.068756,402.046082 406.913605,415.704987   C405.333679,417.229523 404.327911,419.349121 403.055908,421.192780   C402.613922,421.764008 402.171936,422.335266 401.086945,422.940247   C399.647095,423.711761 398.850250,424.449524 398.053406,425.187256   C397.614441,425.758484 397.175476,426.329681 396.241943,427.077850   C395.391022,427.332489 395.150940,427.542816 395.027130,427.885803   C393.948822,428.874054 392.870514,429.862335 391.118958,430.915985   C389.648804,431.717926 388.851929,432.454468 388.055023,433.191010   C388.080719,433.535889 387.944519,433.795959 387.039337,433.976379   C385.317444,435.040497 384.202576,436.099426 383.087769,437.158386   C383.087769,437.158386 383.076019,437.079285 382.746094,437.036316   C381.639496,437.715149 380.862793,438.436981 380.086060,439.158813   C380.086090,439.158813 380.075714,439.079956 379.747070,439.039673   C378.640350,439.718750 377.862213,440.438110 377.084106,441.157471   C377.084137,441.157501 377.074493,441.078918 376.745178,441.041931   C375.639526,441.723175 374.863220,442.441437 374.086914,443.159729   C374.086884,443.159698 374.076324,443.080750 373.737579,443.034943   C371.960327,444.044952 370.521851,445.100769 369.083344,446.156586   C369.083344,446.156586 369.073792,446.078094 368.734406,446.040955   C366.958649,447.055389 365.522278,448.106934 364.085876,449.158508   C364.085907,449.158508 364.077240,449.061890 363.897308,449.154358   C363.368469,449.331879 363.138275,449.545044 363.026764,449.886353   C363.026764,449.886353 362.630157,450.057068 362.188324,450.157349   C361.389832,450.334290 361.149841,450.544250 361.026550,450.887512   C361.026550,450.887512 360.624481,451.058228 360.018372,451.028870   C358.312714,451.325745 357.121765,451.478729 356.127197,452.003784   C337.434143,461.871979 317.784576,469.028442 297.020569,473.102448   C296.266663,473.250397 295.684265,474.272644 295.021973,474.887512   C294.594574,474.951965 294.167175,475.016418 293.231873,474.853424   C291.823303,475.046448 290.922638,475.466949 290.021973,475.887451   C289.002686,475.949188 287.983368,476.010925 286.355835,476.167236   C285.391144,476.335358 285.151093,476.543304 285.027466,476.885620   C283.656219,476.951080 282.285004,477.016541 280.244080,476.814819   C279.106567,476.395020 278.630402,476.087891 278.171997,476.112488   C266.949860,476.713928 255.728134,477.327423 244.511749,478.025513   C243.625900,478.080688 242.779358,478.767334 241.914551,479.160522   C241.479492,479.127258 241.044418,479.094025 240.188980,478.598450   C234.820740,477.805176 229.872849,477.474213 224.924973,477.143219   C224.924973,477.143219 224.550827,477.091522 224.021820,477.045807   C223.265579,477.018188 223.038315,477.036255 222.811066,477.054321   C222.811066,477.054321 222.370468,477.057343 222.087509,476.827942   C221.492157,476.398438 221.235901,476.481964 221.035812,476.849121   C216.629013,476.252716 212.222229,475.656281 207.260880,474.767395   C206.415649,474.328583 206.123245,474.185791 205.829102,474.046570   C204.793625,474.050964 203.758148,474.055389 202.213181,473.766907   C201.411240,473.328217 201.116730,473.186737 200.820190,473.049530   C200.104385,473.052979 199.388565,473.056427 198.300018,472.693604   C197.257812,472.269592 196.588333,472.211823 195.918869,472.154053   C195.178848,472.122498 194.438828,472.090942 193.276169,471.622192   C192.199646,470.732483 191.606339,470.055634 190.883026,469.860291   C173.816299,465.251648 157.677994,458.376740 142.093201,450.104553   C140.848587,449.443939 139.269516,449.413422 137.845871,449.090088   C137.845871,449.090118 137.924713,449.080902 137.907379,448.769226   C137.624680,448.048370 137.451675,447.504761 137.080429,447.249725   C128.231247,441.169495 119.382721,435.087494 110.463638,429.110931   C109.459534,428.438049 108.034935,428.392670 106.805328,428.056305   C106.234367,427.613647 105.663406,427.170959 105.015335,426.088501   C103.227501,424.317841 101.516769,423.186951 99.806046,422.056061  M107.485817,409.018890   C168.176392,461.576935 237.634933,477.506165 314.275635,454.645081   C420.703949,422.898743 483.598846,312.539337 458.943970,203.690552   C434.315613,94.958672 327.945343,18.856272 209.610016,41.622715   C160.260513,51.117035 119.202446,75.755219 87.128220,114.406776   C45.728867,164.295731 30.489351,221.885559 40.493011,285.716888   C48.102230,334.269806 71.036713,375.052002 107.485817,409.018890  z"/>
<path fill="#FCFCFC" opacity="1.000000" stroke="none" d=" M403.399353,421.103729   C404.327911,419.349121 405.333679,417.229523 406.913605,415.704987   C421.068756,402.046082 433.588287,387.076233 443.883331,370.283844   C455.318848,351.631226 464.027008,331.791107 469.903259,310.708740   C470.152466,309.814758 470.753265,309.018768 471.538452,308.099548   C468.991608,317.477692 466.865936,327.260864 463.015045,336.309875   C457.693634,348.814362 451.943298,361.309937 444.763000,372.801086   C437.561340,384.326385 428.675171,394.860840 419.945374,405.345093   C415.165588,411.085419 409.183044,415.824219 403.399353,421.103729  z"/>
<path fill="#FCFCFC" opacity="1.000000" stroke="none" d=" M51.913258,362.455933   C52.714291,362.726990 53.925117,363.179047 54.409019,364.039795   C65.579491,383.909393 79.895378,401.265076 96.359489,416.933044   C97.404785,417.927765 98.102707,419.287506 98.953041,420.835236   C93.644341,416.587799 87.593010,412.599640 83.201591,407.249115   C74.014748,396.055878 65.610817,384.211304 57.096710,372.480865   C54.979034,369.563171 53.666843,366.060913 51.913258,362.455933  z"/>
<path fill="#FDFDFD" opacity="1.000000" stroke="none" d=" M25.501259,215.122787   C25.867264,217.943207 26.283756,221.027191 25.857317,223.989838   C22.912146,244.451111 23.732626,264.830536 26.767328,285.191498   C26.833727,285.637024 26.551426,286.134521 26.139683,286.848877   C24.897829,282.756439 23.361004,278.456360 23.111753,274.082886   C22.444918,262.382263 21.863552,250.638351 22.159449,238.934662   C22.358885,231.046249 24.106586,223.196976 25.501259,215.122787  z"/>
<path fill="#FCFCFC" opacity="1.000000" stroke="none" d=" M295.438110,474.942200   C295.684265,474.272644 296.266663,473.250397 297.020569,473.102448   C317.784576,469.028442 337.434143,461.871979 356.127197,452.003784   C357.121765,451.478729 358.312714,451.325745 359.799957,451.026550   C353.296295,454.703369 346.543030,458.652649 339.472168,461.913208   C333.242157,464.786011 326.778351,467.303772 320.198059,469.226227   C312.203827,471.561768 303.979218,473.108765 295.438110,474.942200  z"/>
<path fill="#FCFCFC" opacity="1.000000" stroke="none" d=" M29.062523,305.420807   C29.990345,306.274750 31.327682,307.411957 31.675112,308.797394   C35.883888,325.580780 42.539955,341.392151 50.345352,356.769257   C51.079456,358.215515 51.460930,359.840729 51.958824,361.768127   C47.609512,354.009979 42.582405,346.155548 39.191483,337.648956   C35.076805,327.326721 32.343220,316.453949 29.062523,305.420807  z"/>
<path fill="#FCFCFC" opacity="1.000000" stroke="none" d=" M471.941406,193.570557   C471.150391,192.832458 470.207733,191.770111 469.708832,190.529358   C463.647827,175.455612 457.647064,160.357635 451.647003,145.259460   C451.040497,143.733261 450.540222,142.164841 450.040039,140.230957   C454.399231,148.173630 459.318848,156.252167 462.852051,164.897308   C466.587891,174.038193 469.003601,183.718628 471.941406,193.570557  z"/>
<path fill="#FCFCFC" opacity="1.000000" stroke="none" d=" M363.992737,52.594372   C362.884796,52.656479 361.466278,52.685665 360.368591,52.106693   C345.409088,44.216446 329.987274,37.481361 313.641327,32.981033   C313.079163,32.826248 312.643158,32.213123 312.085114,31.463421   C320.816895,33.779041 329.870911,35.813393 338.335419,39.284981   C347.130951,42.892319 355.356537,47.889381 363.992737,52.594372  z"/>
<path fill="#FCFCFC" opacity="1.000000" stroke="none" d=" M138.009735,449.408386   C139.269516,449.413422 140.848587,449.443939 142.093201,450.104553   C157.677994,458.376740 173.816299,465.251648 190.883026,469.860291   C191.606339,470.055634 192.199646,470.732483 192.915771,471.535706   C173.626587,467.178955 155.165924,460.268555 138.009735,449.408386  z"/>
<path fill="#FCFCFC" opacity="1.000000" stroke="none" d=" M189.581726,31.062319   C189.193573,31.825315 188.520264,32.937424 187.608551,33.190430   C171.436676,37.678284 156.213974,44.436096 141.412048,52.236095   C140.565002,52.682446 139.529678,52.771519 138.193939,52.985210   C147.768967,45.747032 158.801468,40.738651 170.452194,36.998947   C176.694168,34.995365 182.940979,33.006878 189.581726,31.062319  z"/>
<path fill="#FCFCFC" opacity="1.000000" stroke="none" d=" M51.590858,140.009979   C51.590885,141.263062 51.478535,142.767838 50.921284,144.084259   C45.716305,156.380219 40.442570,168.647125 35.156399,180.908493   C34.849735,181.619812 34.262848,182.210327 33.460022,182.917587   C37.115253,167.839981 43.155964,153.566910 51.590858,140.009979  z"/>
<path fill="#FDFDFD" opacity="1.000000" stroke="none" d=" M242.158997,479.522308   C242.779358,478.767334 243.625900,478.080688 244.511749,478.025513   C255.728134,477.327423 266.949860,476.713928 278.171997,476.112488   C278.630402,476.087891 279.106567,476.395020 279.832489,476.850464   C271.323944,478.103546 262.568634,479.184021 253.785492,479.942871   C250.021255,480.268066 246.199234,479.924072 242.158997,479.522308  z"/>
<path fill="#FCFCFC" opacity="1.000000" stroke="none" d=" M106.963943,428.361877   C108.034935,428.392670 109.459534,428.438049 110.463638,429.110931   C119.382721,435.087494 128.231247,441.169495 137.080429,447.249725   C137.451675,447.504761 137.624680,448.048370 137.902420,448.808594   C126.710030,443.742432 116.199654,437.281799 106.963943,428.361877  z"/>
<path fill="#FCFCFC" opacity="1.000000" stroke="none" d=" M421.104309,98.598389   C419.248566,97.570114 417.057037,96.440567 415.406982,94.774719   C411.156860,90.483856 407.146423,85.955620 403.048157,81.164703   C409.042419,86.622391 415.028809,92.437599 421.104309,98.598389  z"/>
<path fill="#FCFCFC" opacity="1.000000" stroke="none" d=" M98.601105,80.895500   C97.213936,83.104195 95.710953,85.626762 93.704071,87.649345   C90.138000,91.243317 86.266533,94.534264 82.165855,97.948341   C87.292023,92.291183 92.775154,86.637657 98.601105,80.895500  z"/>
<path fill="#FCFCFC" opacity="1.000000" stroke="none" d=" M262.841248,22.476856   C260.592804,23.231491 258.101776,23.937559 255.606598,23.952646   C250.232178,23.985146 244.855606,23.662287 239.194275,23.164927   C246.804688,22.601679 254.700729,22.358364 262.841248,22.476856  z"/>
<path fill="#FCFCFC" opacity="1.000000" stroke="none" d=" M287.877197,25.500713   C285.762299,25.901268 283.411041,26.222719 281.122742,25.971119   C276.140076,25.423271 271.189514,24.583416 266.123840,23.487782   C273.237671,23.795689 280.453522,24.478716 287.877197,25.500713  z"/>
<path fill="#FCFCFC" opacity="1.000000" stroke="none" d=" M441.084900,124.554527   C437.880951,121.110413 434.498474,117.390633 431.372864,113.466278   C429.972839,111.708496 429.087646,109.540680 428.012390,107.182854   C432.374329,112.603020 436.692688,118.399277 441.084900,124.554527  z"/>
<path fill="#FCFCFC" opacity="1.000000" stroke="none" d=" M395.035309,73.638245   C393.465057,73.151009 391.549194,72.614632 390.042542,71.516663   C385.643555,68.310905 381.407959,64.880951 377.096008,61.190346   C383.014679,65.005379 388.945648,69.168953 395.035309,73.638245  z"/>
<path fill="#FDFDFD" opacity="1.000000" stroke="none" d=" M479.521667,259.841125   C478.944489,253.883347 478.728943,247.681412 478.833557,241.194244   C479.396942,247.138351 479.640137,253.367661 479.521667,259.841125  z"/>
<path fill="#FCFCFC" opacity="1.000000" stroke="none" d=" M121.555344,62.915154   C117.128052,66.571404 112.342247,70.301071 107.180885,73.987015   C111.602501,70.291718 116.399666,66.640144 121.555344,62.915154  z"/>
<path fill="#FDFDFD" opacity="1.000000" stroke="none" d=" M225.130615,477.491638   C229.872849,477.474213 234.820740,477.805176 239.873169,478.511414   C235.097244,478.537811 230.216751,478.188965 225.130615,477.491638  z"/>
<path fill="#FDFDFD" opacity="1.000000" stroke="none" d=" M477.406799,274.959229   C477.405334,271.173492 477.772095,267.204712 478.512573,263.129150   C478.515900,266.940338 478.145447,270.858276 477.406799,274.959229  z"/>
<path fill="#FCFCFC" opacity="1.000000" stroke="none" d=" M224.550354,24.058420   C221.785004,24.878180 218.592300,25.643499 215.155945,26.129669   C217.982544,25.235006 221.052765,24.619493 224.550354,24.058420  z"/>
<path fill="#FCFCFC" opacity="1.000000" stroke="none" d=" M70.637978,110.963745   C69.148613,113.515472 67.353745,116.225876 65.200043,118.924576   C66.671631,116.316055 68.502052,113.719238 70.637978,110.963745  z"/>
<path fill="#FCFCFC" opacity="1.000000" stroke="none" d=" M235.542740,23.058170   C233.132996,23.561144 230.288239,24.009624 227.176208,24.151775   C229.641861,23.564857 232.374786,23.284267 235.542740,23.058170  z"/>
<path fill="#FCFCFC" opacity="1.000000" stroke="none" d=" M309.887238,30.508224   C306.777557,30.165689 303.470520,29.491163 300.092712,28.464998   C303.244568,28.800985 306.467224,29.488611 309.887238,30.508224  z"/>
<path fill="#FDFDFD" opacity="1.000000" stroke="none" d=" M478.940613,237.551147   C478.440430,235.462204 477.994476,232.947281 477.850830,230.170929   C478.433685,232.314713 478.714264,234.719925 478.940613,237.551147  z"/>
<path fill="#FCFCFC" opacity="1.000000" stroke="none" d=" M446.085388,132.558228   C444.435516,130.478195 442.712311,128.042557 441.039551,125.226089   C442.730682,127.297714 444.371368,129.750168 446.085388,132.558228  z"/>
<path fill="#FCFCFC" opacity="1.000000" stroke="none" d=" M55.593689,133.006973   C54.792187,135.190857 53.675072,137.536392 52.199055,139.898209   C52.986126,137.665863 54.132099,135.417252 55.593689,133.006973  z"/>
<path fill="#FCFCFC" opacity="1.000000" stroke="none" d=" M450.084900,139.558716   C448.768890,137.813675 447.379425,135.713043 446.039917,133.228882   C447.397003,134.964615 448.704193,137.083893 450.084900,139.558716  z"/>
<path fill="#FCFCFC" opacity="1.000000" stroke="none" d=" M99.962646,422.359375   C101.516769,423.186951 103.227501,424.317841 104.941284,425.820374   C103.335976,425.015625 101.727608,423.839172 99.962646,422.359375  z"/>
<path fill="#FCFCFC" opacity="1.000000" stroke="none" d=" M369.427673,446.085022   C370.521851,445.100769 371.960327,444.044952 373.777100,443.039978   C372.694214,444.065063 371.233093,445.039276 369.427673,446.085022  z"/>
<path fill="#FCFCFC" opacity="1.000000" stroke="none" d=" M368.996796,55.601158   C367.476959,55.130520 365.801575,54.348591 364.105560,53.203407   C365.670380,53.656727 367.255798,54.473297 368.996796,55.601158  z"/>
<path fill="#FCFCFC" opacity="1.000000" stroke="none" d=" M364.429932,449.085754   C365.522278,448.106934 366.958649,447.055389 368.773682,446.045410   C367.692932,447.062347 366.233459,448.037689 364.429932,449.085754  z"/>
<path fill="#FCFCFC" opacity="1.000000" stroke="none" d=" M135.569611,53.913826   C134.476776,54.898445 133.040100,55.956032 131.224213,56.961517   C132.305252,55.935207 133.765503,54.960999 135.569611,53.913826  z"/>
<path fill="#FCFCFC" opacity="1.000000" stroke="none" d=" M373.997314,58.599121   C372.480530,58.129219 370.806580,57.348900 369.107666,56.205318   C370.668518,56.657608 372.254333,57.473156 373.997314,58.599121  z"/>
<path fill="#FCFCFC" opacity="1.000000" stroke="none" d=" M32.525959,185.091522   C32.484844,186.571335 32.126492,188.225296 31.440430,189.928772   C31.478054,188.407410 31.843390,186.836517 32.525959,185.091522  z"/>
<path fill="#FCFCFC" opacity="1.000000" stroke="none" d=" M383.419220,437.086212   C384.202576,436.099426 385.317444,435.040497 386.812683,434.018738   C386.045624,435.041992 384.898163,436.028046 383.419220,437.086212  z"/>
<path fill="#FCFCFC" opacity="1.000000" stroke="none" d=" M290.365814,475.942078   C290.922638,475.466949 291.823303,475.046448 292.907532,474.890503   C292.297272,475.435608 291.503479,475.716156 290.365814,475.942078  z"/>
<path fill="#FCFCFC" opacity="1.000000" stroke="none" d=" M292.921570,26.533005   C292.093292,26.809933 291.101318,26.780563 290.065643,26.432232   C290.933929,26.151083 291.845886,26.188894 292.921570,26.533005  z"/>
<path fill="#FCFCFC" opacity="1.000000" stroke="none" d=" M297.921844,27.532448   C297.095490,27.808382 296.105377,27.778034 295.068542,27.430290   C295.933929,27.150650 296.846008,27.188408 297.921844,27.532448  z"/>
<path fill="#FCFCFC" opacity="1.000000" stroke="none" d=" M398.378845,425.101685   C398.850250,424.449524 399.647095,423.711761 400.819153,423.015228   C400.364319,423.709686 399.534302,424.362915 398.378845,425.101685  z"/>
<path fill="#FCFCFC" opacity="1.000000" stroke="none" d=" M127.592010,58.913277   C127.136993,59.559383 126.360535,60.278191 125.215363,60.954369   C125.654617,60.269817 126.462593,59.627899 127.592010,58.913277  z"/>
<path fill="#FCFCFC" opacity="1.000000" stroke="none" d=" M377.405975,441.085938   C377.862213,440.438110 378.640350,439.718750 379.786560,439.044586   C379.345734,439.731323 378.536774,440.372894 377.405975,441.085938  z"/>
<path fill="#FCFCFC" opacity="1.000000" stroke="none" d=" M388.379944,433.103790   C388.851929,432.454468 389.648804,431.717926 390.820007,431.018982   C390.364532,431.709930 389.534729,432.363251 388.379944,433.103790  z"/>
<path fill="#FCFCFC" opacity="1.000000" stroke="none" d=" M380.407532,439.086487   C380.862793,438.436981 381.639496,437.715149 382.785675,437.041992   C382.346436,437.731842 381.537720,438.373016 380.407532,439.086487  z"/>
<path fill="#FCFCFC" opacity="1.000000" stroke="none" d=" M374.408386,443.087097   C374.863220,442.441437 375.639526,441.723175 376.784485,441.046448   C376.345398,441.730133 375.537659,442.372314 374.408386,443.087097  z"/>
<path fill="#FCFCFC" opacity="1.000000" stroke="none" d=" M130.592026,56.913300   C130.136810,57.562077 129.360245,58.283588 128.214310,58.957336   C128.653503,58.268391 129.462097,57.627213 130.592026,56.913300  z"/>
<path fill="#FCFCFC" opacity="1.000000" stroke="none" d=" M64.613312,118.990021   C64.463120,119.854614 64.016975,120.863937 63.205280,121.893860   C63.332272,120.987885 63.824821,120.061325 64.613312,118.990021  z"/>
<path fill="#FCFCFC" opacity="1.000000" stroke="none" d=" M62.613434,121.990082   C62.462566,122.853691 62.015732,123.862000 61.204262,124.892380   C61.332245,123.987892 61.824852,123.061340 62.613434,121.990082  z"/>
<path fill="#FCFCFC" opacity="1.000000" stroke="none" d=" M60.613373,124.990074   C60.463501,125.855446 60.017662,126.865509 59.205788,127.894943   C59.332302,126.987801 59.824856,126.061287 60.613373,124.990074  z"/>
<path fill="#FCFCFC" opacity="1.000000" stroke="none" d=" M73.644577,106.959641   C73.478371,107.830017 73.012810,108.853752 72.177887,109.911095   C72.320763,109.000801 72.833000,108.056900 73.644577,106.959641  z"/>
<path fill="#FCFCFC" opacity="1.000000" stroke="none" d=" M57.647385,129.959259   C57.486824,130.827026 57.028259,131.844574 56.204525,132.888397   C56.342697,131.979446 56.846035,131.044266 57.647385,129.959259  z"/>
<path fill="#FCFCFC" opacity="1.000000" stroke="none" d=" M79.644279,99.959259   C79.478226,100.822433 79.012733,101.839142 78.182022,102.902115   C78.326141,102.003181 78.835495,101.057983 79.644279,99.959259  z"/>
<path fill="#FCFCFC" opacity="1.000000" stroke="none" d=" M401.042725,78.646339   C400.180176,78.487328 399.165558,78.031006 398.115051,77.209641   C399.016327,77.346077 399.953461,77.847557 401.042725,78.646339  z"/>
<path fill="#FCFCFC" opacity="1.000000" stroke="none" d=" M103.620583,76.897186   C103.148575,77.547592 102.351326,78.284248 101.179901,78.982178   C101.635605,78.290108 102.465469,77.636765 103.620583,76.897186  z"/>
<path fill="#FCFCFC" opacity="1.000000" stroke="none" d=" M124.593964,60.914520   C124.137039,61.561687 123.358574,62.281132 122.212830,62.955479   C122.654510,62.269184 123.463463,61.627987 124.593964,60.914520  z"/>
<path fill="#FCFCFC" opacity="1.000000" stroke="none" d=" M377.009155,60.615128   C376.145233,60.463573 375.137604,60.015438 374.107605,59.203484   C375.011963,59.332626 375.938690,59.825592 377.009155,60.615128  z"/>
<path fill="#FCFCFC" opacity="1.000000" stroke="none" d=" M472.940796,197.670395   C472.494659,197.401337 472.102295,196.824966 471.929199,196.080887   C472.430481,196.396484 472.712524,196.879791 472.940796,197.670395  z"/>
<path fill="#FCFCFC" opacity="1.000000" stroke="none" d=" M29.562271,196.049133   C29.787590,196.588348 29.730885,197.258713 29.393438,197.953674   C29.168547,197.378937 29.224398,196.779602 29.562271,196.049133  z"/>
<path fill="#FCFCFC" opacity="1.000000" stroke="none" d=" M398.083099,76.572746   C397.462860,76.446335 396.771912,75.973335 396.068420,75.153839   C396.708038,75.280273 397.360199,75.753220 398.083099,76.572746  z"/>
<path fill="#FCFCFC" opacity="1.000000" stroke="none" d=" M474.940186,206.670364   C474.494293,206.401093 474.102203,205.824585 473.929016,205.080811   C474.429932,205.396759 474.711975,205.879959 474.940186,206.670364  z"/>
<path fill="#FCFCFC" opacity="1.000000" stroke="none" d=" M475.430054,290.949371   C475.206573,290.406860 475.268250,289.737915 475.608459,289.045410   C475.829712,289.622223 475.772430,290.222595 475.430054,290.949371  z"/>
<path fill="#FDFDFD" opacity="1.000000" stroke="none" d=" M26.563156,210.049362   C26.789576,210.589386 26.734524,211.261093 26.396652,211.955170   C26.169783,211.378723 26.225733,210.779877 26.563156,210.049362  z"/>
<path fill="#FCFCFC" opacity="1.000000" stroke="none" d=" M196.049652,472.436218   C196.588333,472.211823 197.257812,472.269592 197.952667,472.607056   C197.378845,472.830627 196.779633,472.774506 196.049652,472.436218  z"/>
<path fill="#FCFCFC" opacity="1.000000" stroke="none" d=" M472.437012,305.950592   C472.211609,305.411163 472.268219,304.740692 472.605835,304.046021   C472.830902,304.621063 472.774933,305.220306 472.437012,305.950592  z"/>
<path fill="#FCFCFC" opacity="1.000000" stroke="none" d=" M30.560469,192.048706   C30.786921,192.586761 30.732012,193.257004 30.394966,193.952744   C30.168255,193.379135 30.223682,192.779999 30.560469,192.048706  z"/>
<path fill="#FCFCFC" opacity="1.000000" stroke="none" d=" M193.670822,30.059113   C193.396179,30.509872 192.814529,30.906700 192.071640,31.075329   C192.394882,30.566479 192.879333,30.285830 193.670822,30.059113  z"/>
<path fill="#FCFCFC" opacity="1.000000" stroke="none" d=" M476.940460,217.670410   C476.492981,217.401764 476.099213,216.825897 475.926514,216.081848   C476.429810,216.396851 476.711975,216.880005 476.940460,217.670410  z"/>
<path fill="#FCFCFC" opacity="1.000000" stroke="none" d=" M197.670685,29.059111   C197.398514,29.507580 196.819214,29.902073 196.075806,30.072826   C196.395645,29.567770 196.879593,29.286451 197.670685,29.059111  z"/>
<path fill="#FCFCFC" opacity="1.000000" stroke="none" d=" M206.700562,27.093636   C206.852493,27.453264 206.615860,27.662102 206.042191,27.848778   C206.023453,27.663435 206.225723,27.368847 206.700562,27.093636  z"/>
<path fill="#FDFDFD" opacity="1.000000" stroke="none" d=" M222.934906,477.314331   C223.038315,477.036255 223.265579,477.018188 223.834122,477.024902   C223.803192,477.224579 223.430984,477.399445 222.934906,477.314331  z"/>
<path fill="#FCFCFC" opacity="1.000000" stroke="none" d=" M423.905884,101.699844   C423.541626,101.851204 423.330139,101.611481 423.151184,101.025406   C423.341583,101.007034 423.633209,101.216934 423.905884,101.699844  z"/>
<path fill="#FDFDFD" opacity="1.000000" stroke="none" d=" M285.300049,476.904541   C285.151093,476.543304 285.391144,476.335358 285.971375,476.154266   C285.987610,476.338989 285.780121,476.631226 285.300049,476.904541  z"/>
<path fill="#FCFCFC" opacity="1.000000" stroke="none" d=" M211.700500,26.093803   C211.853104,26.454165 211.616699,26.663883 211.041626,26.849833   C211.022278,26.663008 211.225128,26.368706 211.700500,26.093803  z"/>
<path fill="#FCFCFC" opacity="1.000000" stroke="none" d=" M363.295166,449.908752   C363.138275,449.545044 363.368469,449.331879 363.945770,449.157043   C363.970642,449.355255 363.767120,449.643188 363.295166,449.908752  z"/>
<path fill="#FCFCFC" opacity="1.000000" stroke="none" d=" M361.299683,450.906616   C361.149841,450.544250 361.389832,450.334290 361.972443,450.152954   C361.989868,450.340790 361.781342,450.633270 361.299683,450.906616  z"/>
<path fill="#FCFCFC" opacity="1.000000" stroke="none" d=" M200.928802,473.297668   C201.116730,473.186737 201.411240,473.328217 201.834564,473.680420   C201.656113,473.773132 201.346756,473.659454 200.928802,473.297668  z"/>
<path fill="#FCFCFC" opacity="1.000000" stroke="none" d=" M205.933594,474.296387   C206.123245,474.185791 206.415649,474.328583 206.835953,474.681030   C206.656403,474.773438 206.347229,474.659790 205.933594,474.296387  z"/>
<path fill="#FDFDFD" opacity="1.000000" stroke="none" d=" M221.265839,476.916077   C221.235901,476.481964 221.492157,476.398438 221.884720,476.741852   C221.964890,476.885193 221.495850,476.983063 221.265839,476.916077  z"/>
<path fill="#FDFDFD" opacity="1.000000" stroke="none" d=" M26.094511,290.299683   C26.454720,290.147369 26.663263,290.384155 26.848625,290.958740   C26.663761,290.977203 26.369562,290.774628 26.094511,290.299683  z"/>
<path fill="#FDFDFD" opacity="1.000000" stroke="none" d=" M27.702539,204.925720   C27.808512,205.109299 27.667715,205.404663 27.320566,205.832153   C27.228615,205.655609 27.342466,205.346695 27.702539,204.925720  z"/>
<path fill="#FCFCFC" opacity="1.000000" stroke="none" d=" M475.906494,211.700531   C475.546051,211.853012 475.336700,211.616318 475.150879,211.041168   C475.337067,211.022186 475.631470,211.225052 475.906494,211.700531  z"/>
<path fill="#FDFDFD" opacity="1.000000" stroke="none" d=" M25.684252,212.932144   C25.963272,213.037277 25.982773,213.268478 25.973183,213.846710   C25.770971,213.815247 25.597851,213.436737 25.684252,212.932144  z"/>
<path fill="#FCFCFC" opacity="1.000000" stroke="none" d=" M477.310608,225.048889   C477.029999,224.936157 477.015289,224.713715 477.025330,224.157501   C477.225555,224.195557 477.401031,224.567368 477.310608,225.048889  z"/>
<path fill="#FDFDFD" opacity="1.000000" stroke="none" d=" M477.905762,226.700760   C477.548248,226.856949 477.338715,226.625122 477.146790,226.059662   C477.332306,226.037827 477.628723,226.233398 477.905762,226.700760  z"/>
<path fill="#FCFCFC" opacity="1.000000" stroke="none" d=" M28.702356,200.928925   C28.812649,201.116577 28.670904,201.410812 28.319309,201.834396   C28.226822,201.656143 28.340441,201.346710 28.702356,200.928925  z"/>
<path fill="#FCFCFC" opacity="1.000000" stroke="none" d=" M477.313171,278.058624   C477.033936,277.953796 477.017609,277.731415 477.022949,277.175049   C477.221710,277.207703 477.398895,277.574371 477.313171,278.058624  z"/>
<path fill="#FCFCFC" opacity="1.000000" stroke="none" d=" M476.296631,285.066315   C476.181519,284.874054 476.323822,284.581085 476.680542,284.163025   C476.773773,284.343506 476.660156,284.652740 476.296631,285.066315  z"/>
<path fill="#FCFCFC" opacity="1.000000" stroke="none" d=" M58.681641,127.938766   C58.827961,128.141312 58.695961,128.436874 58.321499,128.841553   C58.221306,128.659622 58.329399,128.353333 58.681641,127.938766  z"/>
<path fill="#FDFDFD" opacity="1.000000" stroke="none" d=" M27.094727,295.299500   C27.452639,295.147339 27.660391,295.382690 27.849098,295.951843   C27.665691,295.970642 27.370531,295.771118 27.094727,295.299500  z"/>
<path fill="#FCFCFC" opacity="1.000000" stroke="none" d=" M474.298798,297.075745   C474.188019,296.889832 474.328308,296.593475 474.679810,296.167053   C474.772614,296.344177 474.658875,296.653625 474.298798,297.075745  z"/>
<path fill="#FCFCFC" opacity="1.000000" stroke="none" d=" M28.093901,300.299500   C28.454111,300.148041 28.663363,300.385284 28.848812,300.960876   C28.662533,300.979492 28.368509,300.775787 28.093901,300.299500  z"/>
<path fill="#FCFCFC" opacity="1.000000" stroke="none" d=" M473.297485,301.070801   C473.188049,300.883606 473.329834,300.589508 473.680573,300.165710   C473.772980,300.343903 473.659332,300.653198 473.297485,301.070801  z"/>
<path fill="#FCFCFC" opacity="1.000000" stroke="none" d=" M201.700287,28.094357   C201.848419,28.454473 201.608368,28.662228 201.029999,28.845303   C201.013840,28.660965 201.220657,28.368090 201.700287,28.094357  z"/>
<path fill="#FCFCFC" opacity="1.000000" stroke="none" d=" M473.905823,201.700363   C473.545532,201.850891 473.336884,201.612808 473.152344,201.036346   C473.337891,201.018539 473.631531,201.223145 473.905823,201.700363  z"/>
<path fill="#FCFCFC" opacity="1.000000" stroke="none" d=" M136.704834,53.090935   C136.862885,53.455807 136.632904,53.669369 136.054337,53.842911   C136.029114,53.643978 136.232803,53.356224 136.704834,53.090935  z"/>
<path fill="#FCFCFC" opacity="1.000000" stroke="none" d=" M395.299927,427.904968   C395.150940,427.542816 395.391022,427.332489 395.974335,427.152100   C395.991791,427.340942 395.782257,427.632538 395.299927,427.904968  z"/>
<path fill="#01BF63" opacity="1.000000" stroke="none" d=" M107.227020,408.779236   C71.036713,375.052002 48.102230,334.269806 40.493011,285.716888   C30.489351,221.885559 45.728867,164.295731 87.128220,114.406776   C119.202446,75.755219 160.260513,51.117035 209.610016,41.622715   C327.945343,18.856272 434.315613,94.958672 458.943970,203.690552   C483.598846,312.539337 420.703949,422.898743 314.275635,454.645081   C237.634933,477.506165 168.176392,461.576935 107.227020,408.779236  M154.334854,166.963440   C147.424118,116.658913 177.733734,76.804413 215.212723,62.319008   C219.868774,60.519482 224.659897,59.069454 230.210724,57.177155   C227.467178,57.177155 225.609711,56.941730 223.828705,57.211346   C169.487656,65.437584 125.483299,91.356270 92.955757,135.603714   C62.553600,176.959991 50.732746,223.576218 56.860523,274.644043   C61.467400,313.036865 76.154747,347.137604 101.040443,376.653290   C131.969376,413.336578 171.272690,435.831543 218.629501,443.645142   C238.735565,446.962524 259.006897,448.243744 279.056732,442.437500   C326.079681,428.820068 355.714752,380.974335 347.117615,332.442139   C339.444672,289.127563 306.215271,257.274994 262.780731,251.910309   C253.381958,250.749466 243.711807,251.314407 234.453949,249.564529   C191.562851,241.457443 161.705017,210.625793 154.334854,166.963440  M260.196564,177.998886   C260.817261,177.765091 261.441132,177.539398 262.058167,177.296326   C278.153168,170.955887 285.833282,154.015289 280.012360,137.697128   C274.458862,122.128815 257.236420,113.681419 241.621078,118.866722   C224.852951,124.434814 216.328506,140.856277 221.421478,157.779114   C226.220490,173.725113 242.998993,182.749329 260.196564,177.998886  z"/>
<path fill="#FEFFFF" opacity="1.000000" stroke="none" d=" M154.433304,167.396652   C161.705017,210.625793 191.562851,241.457443 234.453949,249.564529   C243.711807,251.314407 253.381958,250.749466 262.780731,251.910309   C306.215271,257.274994 339.444672,289.127563 347.117615,332.442139   C355.714752,380.974335 326.079681,428.820068 279.056732,442.437500   C259.006897,448.243744 238.735565,446.962524 218.629501,443.645142   C171.272690,435.831543 131.969376,413.336578 101.040443,376.653290   C76.154747,347.137604 61.467400,313.036865 56.860523,274.644043   C50.732746,223.576218 62.553600,176.959991 92.955757,135.603714   C125.483299,91.356270 169.487656,65.437584 223.828705,57.211346   C225.609711,56.941730 227.467178,57.177155 230.210724,57.177155   C224.659897,59.069454 219.868774,60.519482 215.212723,62.319008   C177.733734,76.804413 147.424118,116.658913 154.433304,167.396652  M244.463287,323.710999   C244.138123,323.780151 243.807693,323.830627 243.488556,323.921051   C225.447922,329.031372 215.941284,346.297089 221.762543,363.373962   C227.710480,380.822449 246.088470,389.085266 263.247437,382.025696   C277.231201,376.272491 284.878876,360.276611 280.736725,345.445221   C276.443359,330.072418 261.774017,320.980927 244.463287,323.710999  z"/>
<path fill="#FDFEFE" opacity="1.000000" stroke="none" d=" M259.790649,178.098145   C242.998993,182.749329 226.220490,173.725113 221.421478,157.779114   C216.328506,140.856277 224.852951,124.434814 241.621078,118.866722   C257.236420,113.681419 274.458862,122.128815 280.012360,137.697128   C285.833282,154.015289 278.153168,170.955887 262.058167,177.296326   C261.441132,177.539398 260.817261,177.765091 259.790649,178.098145  z"/>
<path fill="#01BF64" opacity="1.000000" stroke="none" d=" M244.873306,323.591797   C261.774017,320.980927 276.443359,330.072418 280.736725,345.445221   C284.878876,360.276611 277.231201,376.272491 263.247437,382.025696   C246.088470,389.085266 227.710480,380.822449 221.762543,363.373962   C215.941284,346.297089 225.447922,329.031372 243.488556,323.921051   C243.807693,323.830627 244.138123,323.780151 244.873306,323.591797  z"/>
</svg>